HIERARCHY
ROOT hip
{
  OFFSET 0 0 0
  CHANNELS 6 Xposition Yposition Zposition Zrotation Yrotation Xrotation
  JOINT abdomen
  {
    OFFSET 0 20.6881 -0.73152
    CHANNELS 3 Zrotation Xrotation Yrotation
    JOINT chest
    {
      OFFSET 0 11.7043 -0.48768
      CHANNELS 3 Zrotation Xrotation Yrotation
      JOINT neck
      {
        OFFSET 0 22.1894 -2.19456
        CHANNELS 3 Zrotation Xrotation Yrotation
        JOINT head
        {
          OFFSET -0.24384 7.07133 1.2192
          CHANNELS 3 Zrotation Xrotation Yrotation
          JOINT leftEye
          {
            OFFSET 4.14528 8.04674 8.04672
            CHANNELS 3 Zrotation Xrotation Yrotation
            End Site
            {
              OFFSET 1 0 0
            }
          }
          JOINT rightEye
          {
            OFFSET -3.6576 8.04674 8.04672
            CHANNELS 3 Zrotation Xrotation Yrotation
            End Site
            {
              OFFSET 1 0 0
            }
          }
        }
      }
      JOINT rCollar
      {
        OFFSET -2.68224 19.2634 -4.8768
        CHANNELS 3 Zrotation Xrotation Yrotation
        JOINT rShldr
        {
          OFFSET -8.77824 -1.95073 1.46304
          CHANNELS 3 Zrotation Xrotation Yrotation
          JOINT rForeArm
          {
            OFFSET -28.1742 -1.7115 0.48768
            CHANNELS 3 Zrotation Xrotation Yrotation
            JOINT rHand
            {
              OFFSET -22.5879 0.773209 7.07136
              CHANNELS 3 Zrotation Xrotation Yrotation
              JOINT rThumb1
              {
                OFFSET -1.2192 -0.487915 3.41376
                CHANNELS 3 Zrotation Xrotation Yrotation
                JOINT rThumb2
                {
                  OFFSET -3.37035 -0.52449 3.41376
                  CHANNELS 3 Zrotation Xrotation Yrotation
                  End Site
                  {
                    OFFSET -1.78271 -1.18214 1.43049
                  }
                }
              }
              JOINT rIndex1
              {
                OFFSET -7.75947 0.938293 5.60832
                CHANNELS 3 Zrotation Xrotation Yrotation
                JOINT rIndex2
                {
                  OFFSET -2.54057 -0.884171 1.56538
                  CHANNELS 3 Zrotation Xrotation Yrotation
                  End Site
                  {
                    OFFSET -1.62519 -0.234802 1.16502
                  }
                }
              }
              JOINT rMid1
              {
                OFFSET -8.24714 1.18213 3.41376
                CHANNELS 3 Zrotation Xrotation Yrotation
                JOINT rMid2
                {
                  OFFSET -3.10165 -0.590103 1.0647
                  CHANNELS 3 Zrotation Xrotation Yrotation
                  End Site
                  {
                    OFFSET -2.48547 -0.328903 0.83742
                  }
                }
              }
              JOINT rRing1
              {
                OFFSET -8.82822 0.546677 1.51678
                CHANNELS 3 Zrotation Xrotation Yrotation
                JOINT rRing2
                {
                  OFFSET -2.60934 -0.819778 -0.0198488
                  CHANNELS 3 Zrotation Xrotation Yrotation
                  End Site
                  {
                    OFFSET -2.33842 -0.294052 0.168128
                  }
                }
              }
              JOINT rPinky1
              {
                OFFSET -8.27202 -0.0477905 -0.4584
                CHANNELS 3 Zrotation Xrotation Yrotation
                JOINT rPinky2
                {
                  OFFSET -1.82734 -0.647385 -0.700984
                  CHANNELS 3 Zrotation Xrotation Yrotation
                  End Site
                  {
                    OFFSET -1.69225 -0.51767 -0.607171
                  }
                }
              }
            }
          }
        }
      }
      JOINT lCollar
      {
        OFFSET 2.68224 19.2634 -4.8768
        CHANNELS 3 Zrotation Xrotation Yrotation
        JOINT lShldr
        {
          OFFSET 8.77824 -1.95073 1.46304
          CHANNELS 3 Zrotation Xrotation Yrotation
          JOINT lForeArm
          {
            OFFSET 28.1742 -1.7115 0.48768
            CHANNELS 3 Zrotation Xrotation Yrotation
            JOINT lHand
            {
              OFFSET 22.5879 0.773209 7.07136
              CHANNELS 3 Zrotation Xrotation Yrotation
              JOINT lThumb1
              {
                OFFSET 1.2192 -0.487915 3.41376
                CHANNELS 3 Zrotation Xrotation Yrotation
                JOINT lThumb2
                {
                  OFFSET 3.37035 -0.52449 3.41376
                  CHANNELS 3 Zrotation Xrotation Yrotation
                  End Site
                  {
                    OFFSET 1.78271 -1.18214 1.43049
                  }
                }
              }
              JOINT lIndex1
              {
                OFFSET 7.75947 0.938293 5.60832
                CHANNELS 3 Zrotation Xrotation Yrotation
                JOINT lIndex2
                {
                  OFFSET 2.54057 -0.884171 1.56538
                  CHANNELS 3 Zrotation Xrotation Yrotation
                  End Site
                  {
                    OFFSET 1.62519 -0.234802 1.16502
                  }
                }
              }
              JOINT lMid1
              {
                OFFSET 8.24714 1.18213 3.41376
                CHANNELS 3 Zrotation Xrotation Yrotation
                JOINT lMid2
                {
                  OFFSET 3.10165 -0.590103 1.0647
                  CHANNELS 3 Zrotation Xrotation Yrotation
                  End Site
                  {
                    OFFSET 2.48547 -0.328903 0.83742
                  }
                }
              }
              JOINT lRing1
              {
                OFFSET 8.82822 0.546677 1.51678
                CHANNELS 3 Zrotation Xrotation Yrotation
                JOINT lRing2
                {
                  OFFSET 2.60934 -0.819778 -0.0198488
                  CHANNELS 3 Zrotation Xrotation Yrotation
                  End Site
                  {
                    OFFSET 2.33842 -0.294052 0.168128
                  }
                }
              }
              JOINT lPinky1
              {
                OFFSET 8.27202 -0.0477905 -0.4584
                CHANNELS 3 Zrotation Xrotation Yrotation
                JOINT lPinky2
                {
                  OFFSET 1.82734 -0.647385 -0.700984
                  CHANNELS 3 Zrotation Xrotation Yrotation
                  End Site
                  {
                    OFFSET 1.69225 -0.51767 -0.607171
                  }
                }
              }
            }
          }
        }
      }
    }
  }
  JOINT rButtock
  {
    OFFSET -8.77824 4.35084 1.2192
    CHANNELS 3 Zrotation Xrotation Yrotation
    JOINT rThigh
    {
      OFFSET 0 -1.70687 -2.19456
      CHANNELS 3 Zrotation Xrotation Yrotation
      JOINT rShin
      {
        OFFSET 0 -36.8199 0.73152
        CHANNELS 3 Zrotation Xrotation Yrotation
        JOINT rFoot
        {
          OFFSET 0.73152 -45.1104 -5.12064
          CHANNELS 3 Zrotation Xrotation Yrotation
          End Site
          {
            OFFSET -1.1221 -3.69964 12.103
          }
        }
      }
    }
  }
  JOINT lButtock
  {
    OFFSET 8.77824 4.35084 1.2192
    CHANNELS 3 Zrotation Xrotation Yrotation
    JOINT lThigh
    {
      OFFSET 0 -1.70687 -2.19456
      CHANNELS 3 Zrotation Xrotation Yrotation
      JOINT lShin
      {
        OFFSET 0 -36.8199 0.73152
        CHANNELS 3 Zrotation Xrotation Yrotation
        JOINT lFoot
        {
          OFFSET -0.73152 -45.1104 -5.12064
          CHANNELS 3 Zrotation Xrotation Yrotation
          End Site
          {
            OFFSET 1.1221 -3.69964 12.103
          }
        }
      }
    }
  }
}
MOTION
Frames:	5
Frame Time:	0.03333
-32.279 28.574899999999996 -42.215799999999994 -5.732757 -77.490952 2.803512 -8.277191 41.389836 5.234832 0.951839 -25.749699 0.919187 -2.392712 10.118847 95.063114 -25.465765 1.993578 -127.187935 17.808604 4.693714 29.318538 -129.850049 -27.588548 -55.373827 4.077051 -1.486151 14.616678 -168.160588 0.420226 -177.417303 107.793614 -31.395732 -120.692836 -168.408637 70.043822 156.764461 -13.403693 -5.005686 -19.578807 -148.358385 -60.590108 109.182162 -2.604636 -3.680372 -31.16168 -158.027533 -11.876377 56.414483 29.991167 58.929324 -51.551164 -80.048064 26.047901 7.215881 -0.183183 -2.935719 9.968895 -100.803744 -77.250777 -88.104855 -61.611281 -59.158205 -5.085514 110.6352 3.312076 -42.503443 -14.275666 1.736197 9.573738 -65.214307 -53.79891 -69.006383 -152.681603 53.836027 40.886755 9.376379 60.687876 11.523076 -163.625557 4.301021 -88.731149 73.338673 -68.37793 52.609581 -12.501176 -19.916325 -9.512958 178.876968 -55.695694 -79.114727 152.603861 -12.749542 -145.67757 -75.251458 42.323945 41.871814 -172.128896 2.226592 179.382652 -135.472261 -38.496788 -157.33919 -92.876486 44.857598 62.501417 77.087491 -56.530746 -9.32087 0.143549 -0.628387 12.868179 135.481624 -27.02393 -65.199937 -168.7983 -24.873482 128.07362 -134.467903 71.121684 97.272476 -88.111042 54.1151 -41.102156 -97.326259 -25.540845 86.827169 -172.797769 2.103676 96.695954 44.495728 -29.854739 -126.291103
-32.710499999999996 31.885799999999996 -41.5671 -12.389497 -77.299481 10.907158 -1.219841 34.751998 0.653647 -2.077417 -17.662438 -4.499241 -24.845183 1.800731 -70.04877 25.215783 13.387645 34.466351 15.730545 6.685403 45.837466 -129.262518 -25.297132 -50.655131 10.890336 -16.568958 18.691814 2.891593 14.022685 -2.309295 -20.538448 13.066203 102.550546 2.989043 23.165693 10.464381 152.867081 -60.660742 110.391785 -16.244598 -34.28873 -35.443625 -153.242015 -54.915346 159.851154 -45.674326 -71.34675 -140.643804 -168.442013 7.605404 179.862035 162.217753 57.829266 -144.413259 4.443397 -46.293231 10.823373 -176.811412 -1.287307 174.193036 -147.746436 24.741755 153.306937 -80.049454 27.468893 76.790954 65.617308 -72.576717 103.712019 -46.917718 -6.858155 -12.501922 -25.559723 -53.653577 123.853769 -159.966205 -13.580269 -133.878848 173.858986 26.485245 -75.892873 147.908494 10.830589 -45.652543 146.215069 0.82843 -103.802803 97.829941 66.325908 -68.079209 126.146653 34.894605 -134.805813 -163.744632 24.285359 135.919959 44.576011 10.36718 -9.733155 -55.666768 17.998636 20.966577 -9.332244 11.528465 39.178102 -176.18331 -48.832851 -147.910555 -1.352973 -4.728482 1.622658 119.330784 -26.665768 -180.0 150.441073 5.584478 112.271786 -101.239931 39.672146 168.099607 -70.250888 50.447432 -42.894249 -118.78792 -5.765272 12.388109 -167.40761 11.916075 100.564454 -50.788373 -52.317101 111.194675
-32.866299999999995 35.39 -40.503699999999995 -14.512907 -78.288601 13.654398 0.431664 26.505858 81.189454 -7.736512 1.676107 -91.152377 -6.875204 1.140129 125.091853 -18.232327 8.99446 -153.117296 11.907057 7.912956 67.106363 -122.166462 -27.009221 -46.9945 -140.414383 12.25476 128.163826 -109.375242 61.411019 124.860042 -80.319745 19.081293 -162.238923 17.663146 -23.09211 21.194172 -173.10681 22.616902 121.280218 -67.807031 17.716507 14.475053 -5.970046 -53.103765 -33.747978 -168.03377 -53.389118 63.193074 -8.147333 4.695104 -27.523102 -169.412479 19.171412 113.507744 27.994718 -75.207284 27.345011 3.830758 71.653913 -5.890595 -79.536714 25.223429 117.223556 98.939336 -71.655163 87.153432 -20.592756 54.407281 5.368411 63.654669 41.848664 -41.235618 -34.998112 80.265349 165.703874 -156.648855 -20.973695 -132.2452 152.955067 35.212855 -58.651525 -46.898011 -33.853271 -54.670656 150.94088 -1.894881 -101.130268 -37.064105 -37.466123 7.404486 121.922645 11.487623 -146.008494 -175.927209 40.552902 118.136907 -156.668401 -59.297991 -169.820188 -151.903206 -12.126356 -167.603028 -19.208021 17.409947 30.857079 157.258111 -41.146403 -176.255769 -168.191501 83.285061 -0.0 -115.433997 -7.720883 101.883374 143.153034 -0.596836 98.547432 -35.895951 10.086491 177.160975 32.307203 8.218557 0.0 110.900631 -7.521414 -102.151389 165.071752 -14.883473 165.181332 60.603448 -36.736421 -143.972065
-32.6304 39.4878 -39.4243 -13.834723 -79.502667 14.410991 3.366602 22.873311 38.945745 -7.642156 1.68901 -52.486815 -7.271544 -11.313202 61.609028 -6.017455 -7.552993 -90.01812 175.464323 -4.407232 88.3526 -119.161647 -27.991903 -46.003977 -141.608309 11.839202 128.089428 95.349806 -75.56251 80.175272 171.145569 48.337302 66.511283 152.182512 -34.449481 148.057865 -176.256921 -23.835569 127.322638 -145.621097 -15.44911 121.474314 -13.118457 0.339771 -14.302182 -178.931967 -3.927857 59.447828 -80.791206 -80.078961 -97.966421 -40.888479 45.712097 47.833343 7.763191 -77.691995 8.095025 -38.401867 -54.836418 -64.5794 -20.259326 28.429657 93.061907 -130.182714 42.248995 -158.167951 -18.725334 51.785861 4.152247 -75.093619 -54.267884 -106.703056 -2.508865 56.860244 -93.310084 -0.092963 33.70052 10.758226 7.592807 -35.211305 -10.565062 132.086825 34.454388 -117.87154 133.105104 9.064662 -85.152617 22.5238 43.258158 -35.249362 -47.459492 4.033654 7.018488 162.53648 44.164806 -46.307245 -87.746468 -63.000505 -102.073436 -132.279928 -48.013151 -177.864151 125.321534 -16.736582 110.598682 -29.199608 34.012805 39.13568 91.668377 42.061553 68.650309 -67.760006 -24.454314 -150.913392 -161.76159 -41.293335 -124.662364 -93.887587 45.071488 -177.486591 128.929982 46.602421 34.224062 -59.473407 -39.305832 -48.068184 -134.586573 5.832254 -94.230278 131.751808 47.370792 -141.146942
-32.1071 43.3539 -38.6389 -9.234603 -80.878994 11.404784 4.320615 21.332805 -1.406416 -10.979509 -3.018205 -14.078141 -23.127738 -5.510134 -73.273404 21.651842 14.575754 42.303721 -171.510922 4.464801 55.421386 -60.753815 28.342941 -46.611706 -160.259822 -13.555737 138.62139 1.237364 15.655644 12.418198 5.486648 -7.39114 -116.058339 144.653415 -41.692128 140.95925 -172.323946 -8.424528 119.845104 -50.802129 25.902873 26.907468 -19.4033 9.320758 -5.20263 3.292596 -21.371505 39.335757 -105.428494 70.238715 79.581406 168.541804 -73.707758 133.223228 -23.207102 -76.336925 -23.876288 22.124183 -2.92556 -27.613702 84.839027 -84.635989 47.545448 -100.258718 -50.588462 -127.537077 137.998089 -19.172712 -178.843513 -91.500068 39.830089 74.360734 -112.509458 10.531843 35.460751 136.813681 76.422006 -106.720539 172.582368 22.57546 -75.062171 0.809428 -5.910611 -46.972833 -118.733969 -44.841344 -75.054588 12.206915 -28.635825 -4.758111 -25.888384 61.126242 -29.946175 101.851481 -12.709555 49.564241 -91.82119 -48.090069 -91.86478 37.904302 -72.126693 -29.316369 161.165376 29.877158 148.79949 132.331845 -68.393354 81.781946 15.294035 -19.591817 -14.020647 64.456787 -10.258305 -65.28822 -138.075142 -34.380603 -118.666007 -120.554623 25.609806 -170.344564 96.641195 32.218388 29.527023 -45.936379 -41.934268 -35.344537 -98.990776 17.605913 19.823258 35.959607 44.332991 -2.4881
